<?xml version="1.0" standalone="no"?>
<!DOCTYPE svg PUBLIC "-//W3C//DTD SVG 20010904//EN"
 "http://www.w3.org/TR/2001/REC-SVG-20010904/DTD/svg10.dtd">
<svg version="1.0" xmlns="http://www.w3.org/2000/svg"
 width="2859.000000pt" height="892.000000pt" viewBox="0 0 2859.000000 892.000000"
 preserveAspectRatio="xMidYMid meet">
<metadata>
Created by potrace 1.16, written by Peter Selinger 2001-2019
</metadata>
<g transform="translate(0.000000,892.000000) scale(0.100000,-0.100000)"
fill="#1665BA" stroke="none">
<path d="M14395 6879 c-221 -9 -435 -26 -560 -43 -55 -8 -127 -18 -160 -21
-33 -4 -87 -14 -120 -22 -33 -8 -96 -23 -140 -33 -227 -51 -407 -108 -545
-173 -56 -26 -111 -70 -138 -110 -69 -101 -68 -77 -62 -2008 l5 -1715 25 -37
c15 -21 45 -46 75 -60 48 -24 62 -25 320 -32 406 -10 468 5 516 130 9 23 11
411 10 1573 -3 1402 -1 1545 13 1567 20 31 59 50 116 59 25 4 95 18 155 31
153 34 319 45 669 45 272 0 305 2 342 19 97 44 124 130 124 396 0 300 -22 381
-109 410 -53 17 -217 35 -306 33 -33 -1 -136 -5 -230 -9z"/>
<path d="M2078 6875 c-3 -3 -59 -7 -124 -9 -175 -4 -356 -24 -469 -51 -104
-25 -111 -26 -210 -45 -118 -23 -336 -79 -390 -101 -11 -4 -31 -11 -45 -14
-37 -10 -151 -57 -185 -77 -16 -10 -43 -25 -60 -34 -96 -54 -143 -130 -165
-269 -16 -104 -15 -3445 2 -3512 14 -59 65 -108 125 -122 28 -7 167 -12 338
-14 256 -2 297 0 347 16 80 25 113 63 127 141 8 43 11 537 11 1589 l0 1527 23
13 c12 8 49 20 82 27 33 7 85 19 115 26 201 48 566 79 759 63 177 -13 255 -32
371 -87 78 -37 108 -59 170 -121 82 -83 86 -88 129 -176 37 -78 68 -167 77
-230 4 -27 8 -637 8 -1355 1 -1270 2 -1306 20 -1342 11 -21 25 -38 32 -38 7 0
19 -6 26 -13 39 -39 202 -52 508 -39 220 9 258 15 308 50 7 4 22 33 33 63 21
54 21 61 20 1419 -1 834 -6 1398 -12 1450 -12 104 -38 200 -92 345 -121 323
-307 557 -547 686 -25 13 -47 26 -50 29 -9 10 -131 60 -145 60 -7 0 -15 4 -17
10 -5 14 -210 67 -363 95 -135 24 -411 45 -586 45 -91 0 -168 -2 -171 -5z"/>
<path d="M6025 6873 c-83 -4 -314 -33 -350 -43 -478 -134 -711 -261 -890 -485
-27 -33 -51 -62 -55 -65 -24 -19 -135 -179 -160 -231 -17 -35 -35 -72 -41 -81
-5 -10 -9 -31 -9 -48 0 -112 123 -215 361 -305 52 -19 103 -40 114 -45 109
-52 218 -63 274 -29 36 22 91 73 91 84 0 13 94 139 130 175 40 40 163 130 178
130 6 0 12 4 14 8 8 18 174 73 289 94 159 29 379 32 514 5 168 -33 190 -40
262 -75 105 -50 175 -125 237 -252 51 -106 82 -276 90 -494 l6 -169 -173 7
c-94 3 -185 8 -202 10 -16 2 -61 9 -100 14 -62 9 -184 15 -325 15 -86 0 -446
-22 -605 -36 -147 -14 -321 -47 -420 -82 -22 -7 -78 -26 -125 -40 -159 -51
-316 -138 -395 -221 -102 -106 -158 -198 -222 -364 -59 -151 -72 -231 -89
-548 -9 -155 17 -343 63 -467 45 -119 76 -188 113 -248 22 -37 40 -71 40 -77
0 -5 4 -10 8 -10 4 0 15 -13 24 -28 28 -47 107 -122 178 -168 38 -24 71 -44
75 -44 4 0 33 -15 65 -34 89 -53 245 -101 465 -146 109 -23 203 -44 207 -46
12 -8 395 -26 578 -27 199 -2 504 10 580 23 30 5 123 17 205 25 212 22 578
107 725 169 149 62 195 102 237 202 50 116 51 160 42 1389 -7 1063 -9 1149
-27 1280 -21 142 -65 329 -99 420 -46 120 -132 259 -224 360 -66 74 -76 84
-141 137 -97 79 -277 182 -399 228 -207 77 -319 106 -489 125 -123 13 -443 18
-625 8z m635 -2563 c184 -11 354 -23 378 -26 l42 -5 0 -416 c0 -452 -1 -464
-57 -500 -82 -54 -806 -104 -1058 -74 -214 26 -357 64 -402 107 -7 7 -23 21
-36 31 -54 42 -103 161 -133 321 -21 113 -12 167 46 287 71 146 146 203 335
253 167 45 405 51 885 22z"/>
<path d="M10020 6871 c-97 -9 -298 -38 -350 -51 -19 -5 -57 -14 -85 -20 -144
-33 -402 -154 -535 -250 -77 -56 -250 -223 -250 -241 0 -4 -6 -14 -14 -21 -15
-16 -103 -158 -128 -209 -68 -137 -146 -384 -169 -534 -11 -69 -14 -229 -13
-685 0 -660 6 -852 28 -937 8 -32 24 -104 36 -160 24 -114 82 -263 141 -359
21 -36 39 -68 39 -73 0 -5 4 -11 8 -13 5 -1 22 -24 40 -49 52 -77 214 -232
304 -291 136 -90 276 -152 423 -188 235 -57 365 -80 465 -80 52 0 126 -5 164
-10 46 -7 103 -7 170 -1 56 6 133 13 171 16 39 3 111 13 160 20 50 8 122 19
160 25 39 6 84 15 100 20 17 5 74 16 128 25 55 8 107 20 117 25 43 23 44 23
36 -247 -7 -265 -22 -403 -54 -508 -71 -228 -230 -382 -444 -432 -209 -48
-258 -55 -383 -57 -104 -1 -151 4 -235 22 -121 28 -220 57 -270 79 -106 48
-252 173 -313 268 -17 28 -36 55 -42 61 -5 6 -23 27 -38 47 -41 52 -99 77
-181 77 -65 0 -166 -26 -166 -42 0 -5 -5 -8 -11 -8 -6 0 -54 -26 -107 -57 -54
-31 -139 -78 -191 -105 -146 -74 -202 -149 -187 -255 11 -80 71 -169 279 -415
78 -92 228 -200 382 -275 50 -24 101 -50 115 -58 14 -7 48 -20 75 -28 28 -9
74 -25 104 -36 29 -11 103 -29 165 -41 61 -11 129 -25 151 -31 22 -6 110 -15
195 -21 422 -30 771 -2 1030 82 160 53 355 134 380 160 3 3 25 16 50 29 25 14
47 27 50 30 3 4 23 19 45 36 71 52 189 179 254 274 60 87 161 284 161 314 0 7
4 17 9 22 14 16 89 259 96 315 36 268 35 228 36 2301 0 1204 -4 2026 -9 2044
-19 59 -37 91 -78 133 -23 23 -44 42 -48 42 -3 0 -23 11 -44 23 -37 24 -194
88 -352 145 -166 60 -394 106 -680 138 -162 17 -749 27 -890 15z m600 -845
c234 -23 436 -64 502 -103 30 -17 34 -25 39 -79 4 -32 7 -539 8 -1126 l1
-1068 -37 0 c-41 -1 -87 -10 -173 -33 -98 -27 -319 -52 -535 -62 -139 -6 -331
7 -432 31 -140 32 -282 110 -370 203 -72 76 -150 214 -174 311 -20 77 -20
1115 -1 1240 15 93 48 232 62 258 4 9 18 37 30 61 11 24 27 50 35 58 8 8 18
20 22 26 20 32 183 161 237 187 86 42 243 81 366 91 58 5 114 11 125 13 45 8
158 5 295 -8z"/>
<path d="M16605 6869 c-330 -37 -429 -58 -620 -132 -89 -34 -292 -132 -305
-148 -3 -3 -27 -20 -55 -39 -130 -87 -255 -208 -346 -334 -32 -45 -62 -86 -66
-91 -11 -15 -90 -174 -104 -210 -49 -129 -78 -292 -95 -525 -16 -242 -19
-1241 -4 -1420 28 -328 97 -541 246 -766 53 -80 250 -294 270 -294 5 0 26 -16
46 -35 20 -19 39 -35 43 -35 3 0 28 -15 55 -34 63 -43 219 -119 335 -162 186
-70 529 -127 840 -140 111 -5 182 -2 272 10 67 9 139 16 160 16 21 0 92 11
158 25 66 14 145 30 175 36 102 20 262 79 375 138 39 20 72 39 73 44 2 4 8 7
13 7 20 0 187 120 256 184 162 150 277 328 368 567 43 111 59 174 79 309 23
159 24 230 15 950 -8 677 -11 731 -52 941 -27 134 -75 261 -139 367 -21 34
-38 65 -38 68 0 3 -6 12 -12 19 -7 8 -29 35 -48 62 -213 287 -621 518 -1030
583 -30 5 -86 17 -125 26 -55 13 -132 17 -365 19 -162 2 -331 -1 -375 -6z
m420 -840 c291 -25 479 -94 610 -223 120 -118 180 -245 196 -411 10 -112 1
-1411 -11 -1482 -17 -101 -101 -246 -186 -324 -133 -119 -383 -220 -590 -237
-125 -11 -384 9 -509 39 -287 68 -486 253 -556 516 -20 74 -21 107 -24 713 -3
641 2 798 32 900 18 62 68 166 89 187 8 8 14 18 14 21 0 17 110 119 172 159
62 40 172 92 242 113 16 5 70 13 120 16 50 4 100 10 111 15 29 11 150 10 290
-2z"/>
<path d="M23210 6698 c-19 -13 -86 -92 -150 -177 -65 -84 -123 -157 -131 -162
-8 -5 -10 -9 -6 -9 4 0 -3 -15 -17 -33 -33 -43 -33 -60 0 -86 42 -33 67 -27
136 37 69 63 120 108 218 192 86 75 98 88 111 127 30 93 -77 168 -161 111z"/>
<path d="M24618 6577 c-14 -12 -31 -32 -37 -44 -7 -14 -11 -129 -11 -340 l0
-318 -35 52 c-39 58 -97 102 -176 134 -70 28 -218 37 -297 19 -230 -53 -378
-256 -398 -544 -22 -316 146 -590 398 -646 75 -17 238 -8 298 15 65 26 154 94
184 140 l26 40 0 -51 c0 -64 21 -116 56 -139 51 -33 164 -2 178 50 7 26 7
1563 0 1590 -15 58 -135 85 -186 42z m-253 -698 c66 -24 138 -89 161 -144 27
-65 43 -154 44 -246 0 -167 -32 -264 -116 -346 -45 -43 -63 -54 -111 -63 -83
-18 -198 -8 -252 19 -123 63 -181 189 -181 392 0 209 67 334 207 389 67 27
176 26 248 -1z"/>
<path d="M25187 6582 c-39 -27 -67 -76 -67 -117 0 -39 35 -102 63 -111 9 -3
17 -10 17 -16 0 -15 153 -4 158 11 2 6 9 11 16 11 19 0 46 66 46 114 0 34 -7
50 -34 81 -32 37 -36 39 -102 43 -56 2 -75 -1 -97 -16z"/>
<path d="M25896 6411 c-46 -31 -56 -68 -56 -217 l0 -134 -94 0 c-85 0 -98 -3
-122 -23 -39 -34 -40 -100 -1 -133 26 -22 37 -24 125 -24 l97 0 0 -323 c0
-282 2 -331 19 -397 10 -41 25 -82 32 -91 8 -8 14 -20 14 -25 0 -15 70 -78
113 -102 60 -35 154 -54 262 -56 85 -1 104 2 127 19 22 16 27 28 27 60 1 69
-20 84 -140 102 -122 18 -159 37 -188 96 -19 40 -21 61 -21 377 l-1 335 150 5
c82 3 151 7 154 10 40 49 46 84 22 130 -19 36 -43 41 -205 43 l-123 2 -1 145
c-1 122 -4 149 -19 172 -33 48 -119 63 -171 29z"/>
<path d="M20820 6083 c-46 -7 -145 -46 -184 -72 -21 -14 -47 -31 -56 -36 -34
-20 -118 -127 -149 -188 -92 -183 -92 -438 0 -618 44 -85 133 -184 194 -214
22 -11 42 -23 45 -26 3 -3 37 -16 77 -27 86 -26 241 -29 347 -7 69 15 206 72
206 86 0 4 9 10 19 14 20 6 62 79 56 99 -2 6 -6 23 -9 37 -4 18 -18 32 -41 44
-34 16 -39 16 -81 -2 -24 -10 -44 -21 -44 -24 0 -3 -33 -21 -72 -40 -119 -55
-269 -52 -363 8 -131 82 -186 312 -129 532 42 164 155 251 325 251 79 0 148
-22 229 -75 30 -20 65 -38 78 -41 63 -17 109 35 98 110 -16 105 -224 198 -436
195 -47 -1 -96 -4 -110 -6z"/>
<path d="M21653 6070 c-17 -10 -37 -28 -42 -39 -7 -13 -11 -193 -11 -546 0
-471 2 -528 16 -551 21 -32 64 -54 105 -54 41 0 108 38 114 65 3 11 6 171 8
355 2 306 4 339 22 384 48 116 128 169 289 190 149 20 176 39 176 128 0 67
-55 96 -159 83 -60 -7 -168 -41 -188 -59 -7 -6 -30 -24 -52 -41 -21 -16 -52
-50 -67 -75 l-29 -45 -6 80 c-6 94 -10 106 -48 128 -38 22 -89 21 -128 -3z"/>
<path d="M22790 6074 c-30 -8 -66 -20 -80 -26 -60 -29 -147 -94 -175 -130 -16
-21 -35 -44 -41 -51 -38 -43 -88 -176 -105 -277 -13 -84 -6 -226 15 -305 27
-103 123 -250 188 -289 15 -9 33 -22 40 -29 7 -7 33 -22 58 -34 197 -96 561
-57 713 77 58 51 55 137 -6 166 -32 15 -35 15 -147 -39 -143 -68 -215 -83
-325 -68 -127 18 -204 67 -251 161 -25 49 -57 187 -48 202 3 4 176 8 385 8
377 0 410 3 431 34 13 20 8 180 -7 240 -49 187 -188 331 -353 365 -73 15 -226
13 -292 -5z m281 -177 c87 -36 149 -127 168 -246 6 -36 9 -67 7 -69 -5 -4
-617 -5 -621 0 -7 7 27 134 47 172 27 55 101 122 163 146 58 24 176 22 236 -3z"/>
<path d="M25224 6083 c-12 -2 -32 -15 -45 -29 l-24 -26 -3 -511 c-2 -282 0
-530 3 -552 7 -48 39 -75 95 -82 49 -7 80 1 111 28 l24 21 3 534 c2 466 1 539
-13 568 -22 46 -77 64 -151 49z"/>
<path d="M27000 6083 c-50 -8 -146 -47 -196 -79 -52 -35 -144 -125 -144 -142
0 -6 -3 -12 -7 -14 -12 -5 -50 -87 -74 -159 -32 -94 -33 -315 -2 -411 42 -129
114 -236 198 -295 120 -83 215 -108 387 -100 176 7 276 47 377 150 69 70 132
187 151 278 15 77 15 260 0 339 -21 104 -80 214 -158 290 -110 107 -230 151
-407 148 -55 0 -111 -3 -125 -5z m241 -199 c98 -27 169 -109 200 -227 33 -125
19 -363 -23 -414 -6 -7 -7 -13 -4 -13 9 0 -31 -57 -60 -87 -12 -11 -41 -32
-65 -45 -38 -20 -58 -23 -154 -23 -127 0 -178 16 -233 75 -73 77 -102 168
-102 321 0 182 27 268 110 349 26 25 66 52 91 61 58 22 169 23 240 3z"/>
<path d="M20750 4235 c-166 -36 -288 -94 -314 -150 -27 -57 -14 -113 31 -134
32 -15 37 -14 86 9 50 25 143 62 211 84 64 21 220 22 267 2 82 -35 119 -110
119 -242 l0 -72 -202 -4 c-238 -6 -346 -27 -436 -86 -92 -60 -117 -113 -117
-246 0 -92 3 -105 29 -151 24 -43 71 -94 131 -143 8 -7 48 -24 87 -38 95 -32
217 -33 306 -3 70 23 151 90 182 148 l19 36 1 -44 c0 -56 18 -116 40 -136 47
-43 161 -25 180 28 13 39 14 765 0 838 -6 30 -17 70 -26 89 -35 77 -103 159
-131 160 -7 0 -13 4 -13 9 0 4 -30 19 -67 31 -86 30 -282 37 -383 15z m399
-702 c-6 -184 -103 -297 -271 -318 -145 -18 -254 74 -246 208 3 37 11 67 25
85 45 61 156 89 361 91 l133 1 -2 -67z"/>
<path d="M22070 4244 c-8 -3 -44 -15 -80 -26 -36 -11 -67 -24 -70 -27 -3 -4
-21 -18 -40 -31 -97 -66 -186 -206 -211 -335 -17 -84 -16 -262 0 -325 36 -135
104 -240 210 -324 74 -58 200 -90 330 -84 92 5 119 12 210 56 38 18 121 96
121 112 0 5 5 10 10 10 6 0 10 8 10 17 0 11 3 13 9 8 6 -6 7 -67 2 -156 -7
-114 -13 -155 -29 -190 -53 -113 -147 -159 -325 -159 -74 0 -105 5 -181 31
-50 17 -117 44 -148 60 -76 38 -118 38 -141 0 -38 -65 -14 -130 68 -180 194
-118 540 -134 750 -35 22 11 42 22 43 27 2 4 7 7 12 7 14 0 91 83 116 126 13
22 34 70 47 105 22 64 22 68 22 660 0 569 -1 598 -19 618 -44 48 -128 51 -180
5 -26 -23 -30 -33 -34 -100 l-5 -75 -25 37 c-39 58 -54 73 -102 104 -77 49
-157 70 -262 69 -51 0 -100 -3 -108 -5z m296 -205 c76 -29 145 -98 174 -176
28 -74 39 -245 20 -324 -37 -158 -140 -248 -294 -257 -78 -5 -186 13 -186 30
0 4 -6 8 -14 8 -15 0 -71 50 -104 94 -75 99 -83 368 -14 489 17 31 62 82 95
106 66 51 228 65 323 30z"/>
<path d="M23224 4243 c-12 -2 -32 -15 -45 -29 l-24 -26 0 -548 0 -548 25 -21
c48 -40 135 -40 181 0 l24 21 5 356 5 357 30 59 c55 110 136 158 290 171 94 9
141 29 154 68 19 52 13 91 -15 118 -23 21 -34 24 -102 22 -141 -3 -265 -65
-332 -166 -14 -20 -28 -37 -32 -37 -5 0 -8 29 -8 65 0 35 -5 75 -11 89 -20 42
-79 62 -145 49z"/>
<path d="M24381 4240 c-273 -57 -439 -283 -441 -600 0 -60 29 -232 41 -240 4
-3 11 -18 14 -33 10 -37 80 -145 120 -183 102 -96 206 -135 375 -141 108 -5
137 -2 208 17 87 24 172 72 231 131 113 113 180 311 167 494 -8 110 -44 259
-66 275 -4 3 -15 20 -25 39 -16 31 -63 89 -93 115 -7 6 -18 16 -25 22 -31 27
-97 63 -157 84 -51 18 -90 24 -185 26 -66 2 -140 -1 -164 -6z m265 -201 c62
-24 140 -93 150 -135 3 -13 10 -24 14 -24 16 0 40 -145 40 -242 0 -92 -23
-225 -40 -238 -4 -3 -10 -14 -14 -25 -8 -26 -53 -76 -91 -102 -49 -33 -117
-46 -212 -41 -131 6 -190 42 -254 155 -64 112 -66 386 -4 510 69 139 252 201
411 142z"/>
</g>
</svg>
